<?xml version="1.0" encoding="UTF-8" standalone="no"?>
<!-- Generator: Adobe Illustrator 22.1.0, SVG Export Plug-In . SVG Version: 6.00 Build 0)  -->

<svg
   xmlns:dc="http://purl.org/dc/elements/1.1/"
   xmlns:cc="http://creativecommons.org/ns#"
   xmlns:rdf="http://www.w3.org/1999/02/22-rdf-syntax-ns#"
   xmlns:svg="http://www.w3.org/2000/svg"
   xmlns="http://www.w3.org/2000/svg"
   xmlns:sodipodi="http://sodipodi.sourceforge.net/DTD/sodipodi-0.dtd"
   xmlns:inkscape="http://www.inkscape.org/namespaces/inkscape"
   version="1.1"
   id="Layer_1"
   x="0px"
   y="0px"
   viewBox="0 0 265 78.4"
   style="enable-background:new 0 0 265 78.4;"
   xml:space="preserve"
   sodipodi:docname="logo.svg"
   inkscape:export-filename="/home/jmccrae/Downloads/logo.png"
   inkscape:export-xdpi="257.01999"
   inkscape:export-ydpi="257.01999"
   inkscape:version="0.92.3 (2405546, 2018-03-11)"><metadata
   id="metadata1077"><rdf:RDF><cc:Work
       rdf:about=""><dc:format>image/svg+xml</dc:format><dc:type
         rdf:resource="http://purl.org/dc/dcmitype/StillImage" /></cc:Work></rdf:RDF></metadata><defs
   id="defs1075" /><sodipodi:namedview
   pagecolor="#ffffff"
   bordercolor="#666666"
   borderopacity="1"
   objecttolerance="10"
   gridtolerance="10"
   guidetolerance="10"
   inkscape:pageopacity="0"
   inkscape:pageshadow="2"
   inkscape:window-width="1920"
   inkscape:window-height="1055"
   id="namedview1073"
   showgrid="false"
   inkscape:zoom="5.2490566"
   inkscape:cx="132.5"
   inkscape:cy="39.200001"
   inkscape:window-x="1920"
   inkscape:window-y="0"
   inkscape:window-maximized="0"
   inkscape:current-layer="g1070" />
<style
   type="text/css"
   id="style966">
	.st0{fill:#1C6274;}
</style>
<g
   id="g1010">
	<g
   id="g1008">
		<path
   class="st0"
   d="M21.1,25.3h1v4.2h0.8v-5h-1.8V25.3z M21.1,25.3"
   id="path968" />
		<path
   class="st0"
   d="M18.8,24.6c-1.4,0-2.1,0.9-2.1,2.5c0,1.6,0.8,2.5,2.1,2.5c1.4,0,2.1-0.9,2.1-2.5    C20.9,25.5,20.1,24.6,18.8,24.6L18.8,24.6z M18.8,28.9c-0.8,0-1.3-0.6-1.3-1.8c0-1.3,0.4-1.8,1.3-1.8c0.8,0,1.2,0.6,1.2,1.8    C20,28.3,19.6,28.9,18.8,28.9L18.8,28.9z M18.8,28.9"
   id="path970" />
		<path
   class="st0"
   d="M29.3,14.4h0.8v-5h-1.8v0.7h1V14.4z M29.3,14.4"
   id="path972" />
		<path
   class="st0"
   d="M41.1,22H42v-5h-1.8v0.7h1V22z M41.1,22"
   id="path974" />
		<g
   id="g980">
			<path
   class="st0"
   d="M33.2,9.4c-1.4,0-2.1,0.9-2.1,2.5c0,1.6,0.8,2.5,2.1,2.5c1.4,0,2.1-0.9,2.1-2.5C35.3,10.3,34.5,9.4,33.2,9.4     L33.2,9.4z M33.2,13.7c-0.8,0-1.3-0.6-1.3-1.8c0-1.3,0.4-1.8,1.3-1.8c0.8,0,1.2,0.6,1.2,1.8C34.4,13.1,34,13.7,33.2,13.7     L33.2,13.7z M33.2,13.7"
   id="path976" />
			<path
   class="st0"
   d="M55.3,11.6C51.9,7.3,42.9,0,31.2,0C23.4,0,15.9,3.3,9.1,9.7c0,0,0,0,0,0C2.3,16.6,3.2,23,4.3,31     c0.1,0.5,0.1,1,0.2,1.5c0.2,1.4-1,3.5-2.2,5.5c-1.7,3.1-3.5,6.2-1.3,7.7c3.8,2.6,4.4,7.6,5,12.5c0.1,1.2,0.3,2.4,0.5,3.5     c0.3,2,2,3,5.2,3c1.4,0,2.9-0.2,4.3-0.3c1.2-0.1,2.4-0.3,3.4-0.3c0.5,0,0.9,0,1.3,0.1c3.8,1,7.1,8.7,8.3,13.3     c0.1,0.4,0.4,0.7,0.8,0.8c0.1,0,0.2,0,0.3,0c0.3,0,0.5-0.1,0.7-0.3l19.4-18.5c0.3-0.3,0.4-0.7,0.3-1.1c-1.7-5.4,1.8-10.6,5-15.2     c1.4-2,2.7-3.9,3.6-5.8C63.1,28.8,60.2,17.7,55.3,11.6L55.3,11.6z M51.9,21.3c-0.6-0.1-0.9-0.7-1-1.6     C51.4,20.2,51.7,20.7,51.9,21.3L51.9,21.3z M36.6,11.4c0.3,0.3,0.5,0.7,0.7,1.1c0.2,0,0.5,0,0.7,0c0.3,0,0.7,0,1,0.1     c-0.1,0.8-0.5,1.3-1.2,1.3c-0.8,0-1.3-0.6-1.3-1.8C36.6,11.7,36.6,11.5,36.6,11.4L36.6,11.4z M20.9,17.6c0.8,0,1.2,0.6,1.2,1.8     c0,1.3-0.4,1.8-1.2,1.8c-0.8,0-1.3-0.6-1.3-1.8C19.7,18.2,20.1,17.6,20.9,17.6L20.9,17.6z M17.4,18.6c0.1,0.3,0.1,0.5,0.1,0.9     c0,1.3-0.4,1.8-1.2,1.8c-0.3,0-0.6-0.1-0.8-0.3C15.9,20.1,16.6,19.2,17.4,18.6L17.4,18.6z M51.7,27.1v-2.5h-1.8v0.7h1v3     c-1.2,1.5-3.1,2.4-5.2,2.4h-24c-2.6,0-4.8-1.4-5.9-3.5v-2.6h-0.8c0-0.2,0-0.5,0-0.7c0-0.7,0.1-1.5,0.3-2.1     c0.3,0.2,0.7,0.2,1.1,0.2c1.4,0,2.1-0.9,2.1-2.5c0-0.6-0.1-1-0.3-1.4c0.5-0.3,1-0.5,1.5-0.7c-0.5,0.4-0.8,1.1-0.8,2.1     c0,1.6,0.8,2.5,2.1,2.5c1.4,0,2.1-0.9,2.1-2.5c0-1.6-0.8-2.5-2.1-2.5c-0.3,0-0.5,0-0.7,0.1c0-2.1,0.7-4,1.8-5.5v2.8h0.8v-3.7     c1.7-1.7,4-2.7,6.5-2.7c2.5,0,4.8,1,6.5,2.7c-0.1,0.4-0.2,0.8-0.2,1.3c0,1.6,0.8,2.5,2.1,2.5c1.1,0,1.8-0.6,2-1.7     c0.4,0.1,0.9,0.3,1.2,0.5v1.2H42v-0.7c1.2,0.8,2.1,2,2.5,3.4c-1,0.2-1.6,1.1-1.6,2.4c0,1.6,0.8,2.5,2.1,2.5     c1.4,0,2.1-0.9,2.1-2.5c0-1.3-0.5-2.1-1.3-2.4c0.5,0,1.1,0.1,1.5,0.2v0.4h1V22h0.8v-3.9c0.4,0.2,0.7,0.5,1,0.7     c0,0.2-0.1,0.4-0.1,0.7c0,1.6,0.7,2.5,2.1,2.5c0.2,0.6,0.3,1.2,0.3,1.9C52.5,25,52.2,26.1,51.7,27.1L51.7,27.1z M45,17.6     c0.8,0,1.2,0.6,1.2,1.8c0,1.3-0.4,1.8-1.2,1.8c-0.8,0-1.3-0.6-1.3-1.8C43.8,18.2,44.2,17.6,45,17.6L45,17.6z M45,17.6"
   id="path978" />
		</g>
		<path
   class="st0"
   d="M47.6,24.6c-1.4,0-2.1,0.9-2.1,2.5c0,1.6,0.8,2.5,2.1,2.5c1.4,0,2.1-0.9,2.1-2.5    C49.7,25.5,48.9,24.6,47.6,24.6L47.6,24.6z M47.6,28.9c-0.8,0-1.3-0.6-1.3-1.8c0-1.3,0.4-1.8,1.3-1.8c0.8,0,1.2,0.6,1.2,1.8    C48.8,28.3,48.4,28.9,47.6,28.9L47.6,28.9z M47.6,28.9"
   id="path982" />
		<path
   class="st0"
   d="M33.2,24.6c-1.4,0-2.1,0.9-2.1,2.5c0,1.6,0.8,2.5,2.1,2.5c1.4,0,2.1-0.9,2.1-2.5    C35.3,25.5,34.5,24.6,33.2,24.6L33.2,24.6z M33.2,28.9c-0.8,0-1.3-0.6-1.3-1.8c0-1.3,0.4-1.8,1.3-1.8c0.8,0,1.2,0.6,1.2,1.8    C34.4,28.3,34,28.9,33.2,28.9L33.2,28.9z M33.2,28.9"
   id="path984" />
		<path
   class="st0"
   d="M35.5,25.3h1v4.2h0.8v-5h-1.8V25.3z M35.5,25.3"
   id="path986" />
		<path
   class="st0"
   d="M42.7,25.3h1v4.2h0.8v-5h-1.8V25.3z M42.7,25.3"
   id="path988" />
		<path
   class="st0"
   d="M34.8,22v-5H33v0.7h1V22H34.8z M34.8,22"
   id="path990" />
		<path
   class="st0"
   d="M28.1,17c-1.4,0-2.1,0.9-2.1,2.5c0,1.6,0.8,2.5,2.1,2.5c1.4,0,2.1-0.9,2.1-2.5C30.2,17.9,29.5,17,28.1,17    L28.1,17z M28.1,21.3c-0.8,0-1.3-0.6-1.3-1.8c0-1.3,0.4-1.8,1.3-1.8c0.8,0,1.2,0.6,1.2,1.8C29.4,20.7,29,21.3,28.1,21.3L28.1,21.3    z M28.1,21.3"
   id="path992" />
		<path
   class="st0"
   d="M31.4,22h0.8v-5h-1.8v0.7h1V22z M31.4,22"
   id="path994" />
		<path
   class="st0"
   d="M26,14.4c1.4,0,2.1-0.9,2.1-2.5c0-1.6-0.8-2.5-2.1-2.5c-1.4,0-2.1,0.9-2.1,2.5C23.9,13.5,24.6,14.4,26,14.4    L26,14.4z M26,10c0.8,0,1.2,0.6,1.2,1.8c0,1.3-0.4,1.8-1.2,1.8c-0.8,0-1.3-0.6-1.3-1.8C24.7,10.6,25.1,10,26,10L26,10z M26,10"
   id="path996" />
		<path
   class="st0"
   d="M39.9,19.5c0-1.6-0.8-2.5-2.1-2.5c-1.4,0-2.1,0.9-2.1,2.5c0,1.6,0.8,2.5,2.1,2.5C39.2,22,39.9,21.1,39.9,19.5    L39.9,19.5z M37.8,21.3c-0.8,0-1.3-0.6-1.3-1.8c0-1.3,0.4-1.8,1.3-1.8c0.8,0,1.2,0.6,1.2,1.8C39.1,20.7,38.7,21.3,37.8,21.3    L37.8,21.3z M37.8,21.3"
   id="path998" />
		<path
   class="st0"
   d="M40.4,24.6c-1.4,0-2.1,0.9-2.1,2.5c0,1.6,0.8,2.5,2.1,2.5c1.4,0,2.1-0.9,2.1-2.5    C42.5,25.5,41.7,24.6,40.4,24.6L40.4,24.6z M40.4,28.9c-0.8,0-1.3-0.6-1.3-1.8c0-1.3,0.4-1.8,1.3-1.8c0.8,0,1.2,0.6,1.2,1.8    C41.6,28.3,41.2,28.9,40.4,28.9L40.4,28.9z M40.4,28.9"
   id="path1000" />
		<path
   class="st0"
   d="M24.2,22h0.8v-5h-1.8v0.7h1V22z M24.2,22"
   id="path1002" />
		<path
   class="st0"
   d="M26,24.6c-1.4,0-2.1,0.9-2.1,2.5c0,1.6,0.8,2.5,2.1,2.5c1.4,0,2.1-0.9,2.1-2.5C28.1,25.5,27.3,24.6,26,24.6    L26,24.6z M26,28.9c-0.8,0-1.3-0.6-1.3-1.8c0-1.3,0.4-1.8,1.3-1.8c0.8,0,1.2,0.6,1.2,1.8C27.2,28.3,26.8,28.9,26,28.9L26,28.9z     M26,28.9"
   id="path1004" />
		<path
   class="st0"
   d="M28.3,25.3h1v4.2h0.8v-5h-1.8V25.3z M28.3,25.3"
   id="path1006" />
	</g>
</g>
<g
   id="g1070">
	<path
   class="st0"
   d="M75.3,35.9V16.7h3.9v16.5h4.5v2.7H75.3z"
   id="path1012" />
	<path
   class="st0"
   d="M84.3,35.9l3.7-19.2h4.3l3.7,19.2h-3.6l-0.7-4.2h-3L88,35.9H84.3z M89.1,29.2h2.3l-1.1-7.6L89.1,29.2z"
   id="path1014" />
	<path
   class="st0"
   d="M97.7,35.9V16.7h2.7l4.3,10v-10h3.2v19.2h-2.6l-4.3-10.6v10.6H97.7z"
   id="path1016" />
	<path
   class="st0"
   d="M115.5,36.1c-0.9,0-1.8-0.2-2.4-0.5c-0.7-0.3-1.2-0.8-1.6-1.4s-0.7-1.3-0.9-2.1c-0.2-0.8-0.3-1.7-0.3-2.8v-6.3   c0-0.9,0.1-1.6,0.2-2.3s0.3-1.3,0.6-1.9s0.6-1,1-1.4c0.4-0.4,1-0.7,1.6-0.9c0.6-0.2,1.4-0.3,2.2-0.3c1,0,1.9,0.1,2.6,0.4   s1.3,0.6,1.7,1.1c0.4,0.5,0.7,1.1,0.9,1.8s0.3,1.5,0.3,2.4v1.1h-3.8v-1.3c0-0.4,0-0.6,0-0.9c0-0.2-0.1-0.5-0.1-0.7   c-0.1-0.2-0.2-0.4-0.3-0.6s-0.3-0.3-0.5-0.3c-0.2-0.1-0.5-0.1-0.8-0.1c-0.3,0-0.6,0.1-0.8,0.2c-0.2,0.1-0.4,0.2-0.5,0.4   c-0.1,0.2-0.2,0.4-0.3,0.7c-0.1,0.3-0.1,0.5-0.1,0.8c0,0.2,0,0.5,0,0.9v8.3c0,0.9,0.1,1.6,0.4,2.1s0.7,0.7,1.4,0.7   c0.7,0,1.2-0.3,1.5-0.8c0.3-0.5,0.4-1.3,0.4-2.2v-1.9H116V26h5.4v9.9h-2.6l-0.3-1.8C118,35.5,117,36.1,115.5,36.1z"
   id="path1018" />
	<path
   class="st0"
   d="M129.2,36.1c-1.1,0-2-0.1-2.7-0.4c-0.7-0.3-1.3-0.7-1.7-1.3c-0.4-0.6-0.7-1.2-0.9-2c-0.2-0.8-0.3-1.7-0.3-2.8   v-13h3.8v13.5c0,0.4,0,0.7,0,0.9s0.1,0.5,0.1,0.8c0.1,0.3,0.2,0.5,0.3,0.7c0.1,0.2,0.3,0.3,0.5,0.5c0.2,0.1,0.5,0.2,0.8,0.2   s0.6-0.1,0.8-0.2c0.2-0.1,0.4-0.3,0.5-0.5s0.2-0.4,0.3-0.7c0.1-0.3,0.1-0.6,0.1-0.8s0-0.6,0-0.9V16.7h3.8v13c0,1.1-0.1,2-0.3,2.8   c-0.2,0.8-0.5,1.4-0.9,2c-0.4,0.6-1,1-1.7,1.3C131.2,36,130.3,36.1,129.2,36.1z"
   id="path1020" />
	<path
   class="st0"
   d="M136.2,35.9l3.7-19.2h4.3l3.7,19.2h-3.6l-0.7-4.2h-3l-0.7,4.2H136.2z M141,29.2h2.3l-1.1-7.6L141,29.2z"
   id="path1022" />
	<path
   class="st0"
   d="M154.5,36.1c-0.9,0-1.8-0.2-2.4-0.5c-0.7-0.3-1.2-0.8-1.6-1.4c-0.4-0.6-0.7-1.3-0.9-2.1   c-0.2-0.8-0.3-1.7-0.3-2.8v-6.3c0-0.9,0.1-1.6,0.2-2.3c0.1-0.7,0.3-1.3,0.6-1.9c0.3-0.6,0.6-1,1-1.4c0.4-0.4,1-0.7,1.6-0.9   s1.4-0.3,2.2-0.3c1,0,1.9,0.1,2.6,0.4s1.3,0.6,1.7,1.1c0.4,0.5,0.7,1.1,0.9,1.8c0.2,0.7,0.3,1.5,0.3,2.4v1.1h-3.8v-1.3   c0-0.4,0-0.6,0-0.9c0-0.2-0.1-0.5-0.1-0.7c-0.1-0.2-0.2-0.4-0.3-0.6c-0.1-0.1-0.3-0.3-0.5-0.3c-0.2-0.1-0.5-0.1-0.8-0.1   c-0.3,0-0.6,0.1-0.8,0.2s-0.4,0.2-0.5,0.4c-0.1,0.2-0.2,0.4-0.3,0.7c-0.1,0.3-0.1,0.5-0.1,0.8s0,0.5,0,0.9v8.3   c0,0.9,0.1,1.6,0.4,2.1c0.3,0.5,0.7,0.7,1.4,0.7c0.7,0,1.2-0.3,1.5-0.8c0.3-0.5,0.4-1.3,0.4-2.2v-1.9h-1.9V26h5.4v9.9h-2.6   l-0.3-1.8C157.1,35.5,156,36.1,154.5,36.1z"
   id="path1024" />
	<path
   class="st0"
   d="M162.9,35.9V16.7h8.4v2.7h-4.5v5.1h3.5v2.7h-3.5v6h4.5v2.7H162.9z"
   id="path1026" />
	<path
   class="st0"
   d="M173.1,39.2l-0.3-1.2c0.5-0.1,0.9-0.3,1.2-0.7s0.5-0.8,0.5-1.4h-1.9v-3.4h3.4v3C176,37.7,175,38.9,173.1,39.2z   "
   id="path1028" />
	<path
   class="st0"
   d="M183.7,35.9V16.7h4.7c1.2,0,2.2,0.1,3,0.3s1.4,0.6,1.9,1.1c0.5,0.5,0.8,1.1,1,1.9c0.2,0.7,0.3,1.6,0.3,2.7v6.9   c0,1.1-0.1,2-0.3,2.8c-0.2,0.8-0.5,1.4-1,1.9c-0.5,0.5-1.1,0.9-1.9,1.2c-0.8,0.2-1.8,0.4-3,0.4H183.7z M187.6,33.1h0.8   c0.3,0,0.5,0,0.7,0c0.2,0,0.4-0.1,0.5-0.2s0.3-0.2,0.4-0.2c0.1-0.1,0.2-0.2,0.3-0.4s0.1-0.3,0.2-0.4c0-0.1,0.1-0.3,0.1-0.6   c0-0.2,0-0.5,0-0.6s0-0.4,0-0.8v-7.7c0-0.5,0-0.8,0-1.1c0-0.3-0.1-0.5-0.2-0.8c-0.1-0.3-0.2-0.4-0.4-0.6c-0.2-0.1-0.4-0.2-0.7-0.3   c-0.3-0.1-0.6-0.1-1-0.1h-0.8V33.1z"
   id="path1030" />
	<path
   class="st0"
   d="M195.8,35.9l3.7-19.2h4.3l3.7,19.2h-3.6l-0.7-4.2h-3l-0.7,4.2H195.8z M200.5,29.2h2.3l-1.1-7.6L200.5,29.2z"
   id="path1032" />
	<path
   class="st0"
   d="M210.4,35.9V19.6h-3.1v-2.9h10v2.9h-3v16.3H210.4z"
   id="path1034" />
	<path
   class="st0"
   d="M217.6,35.9l3.7-19.2h4.3l3.7,19.2h-3.6l-0.7-4.2h-3l-0.7,4.2H217.6z M222.4,29.2h2.3l-1.1-7.6L222.4,29.2z"
   id="path1036" />
	<path
   class="st0"
   d="M238.7,36.1c-0.5,0-1-0.2-1.4-0.4s-0.7-0.6-0.9-1.1c-0.2-0.4-0.3-0.9-0.3-1.3c0-0.3,0-0.6,0.1-0.9   c0.1-0.3,0.1-0.5,0.2-0.7c0.1-0.2,0.2-0.4,0.4-0.6c0.2-0.2,0.3-0.4,0.4-0.5c0.1-0.1,0.3-0.3,0.6-0.5c0.2-0.2,0.4-0.3,0.6-0.4   s0.4-0.2,0.6-0.3c0.3-0.1,0.5-0.2,0.6-0.3c0.2-0.1,0.4-0.1,0.6-0.3s0.5-0.2,0.6-0.2v-1.1c0-0.4-0.1-0.7-0.2-1   c-0.1-0.2-0.3-0.3-0.6-0.3c-0.5,0-0.8,0.4-0.8,1.1l-0.1,0.8l-2.9-0.1c0-0.1,0-0.3,0-0.4c0.1-1.3,0.5-2.2,1.1-2.8s1.6-0.9,2.9-0.9   c1.2,0,2,0.3,2.6,1c0.6,0.6,0.9,1.5,0.9,2.6v5.4c0,0.9,0.1,1.9,0.2,3h-2.8c-0.2-0.9-0.3-1.4-0.3-1.7c-0.2,0.5-0.4,1-0.8,1.3   C239.8,35.9,239.3,36.1,238.7,36.1z M239.8,33.8c0.2,0,0.4-0.1,0.6-0.2c0.2-0.1,0.3-0.3,0.5-0.4V30c-0.6,0.3-1,0.7-1.4,1.1   c-0.4,0.5-0.6,0.9-0.6,1.4c0,0.4,0.1,0.7,0.2,1C239.3,33.7,239.5,33.8,239.8,33.8z"
   id="path1038" />
	<path
   class="st0"
   d="M245.6,35.9V24.1h3.1v1.2c0.9-0.9,1.9-1.4,2.9-1.4c0.7,0,1.2,0.3,1.5,0.8s0.5,1.1,0.5,1.9v9.3h-3.1v-8.8   c0-0.3,0-0.6-0.1-0.7s-0.3-0.2-0.6-0.2c-0.3,0-0.7,0.2-1.1,0.5v9.3H245.6z"
   id="path1040" />
	<path
   class="st0"
   d="M258,36.1c-1.9,0-2.8-1.3-2.8-3.9V28c0-0.8,0.1-1.5,0.3-2.1c0.2-0.6,0.5-1.1,0.9-1.4c0.4-0.4,1-0.6,1.6-0.6   c0.8,0,1.5,0.3,2.2,0.9v-5.4h3.1v16.5h-3.1V35C259.5,35.7,258.8,36.1,258,36.1z M259.2,34c0.3,0,0.6-0.1,1-0.3v-7.5   c-0.3-0.2-0.6-0.3-1-0.3c-0.3,0-0.6,0.1-0.7,0.4c-0.1,0.3-0.2,0.6-0.2,1.1v4.9C258.3,33.4,258.6,34,259.2,34z"
   id="path1042" />
	<path
   class="st0"
   d="M75.5,62.3V40.2H80v9.3l4-9.3h4.3l-4.1,9.9l4.4,12.1h-4.5l-3.5-10.1L80,53.3v9H75.5z"
   id="path1044" />
	<path
   class="st0"
   d="M90.2,62.3V40.2h3.1l4.9,11.5V40.2h3.7v22.1h-3l-5-12.2v12.2H90.2z"
   id="path1046" />
	<path
   class="st0"
   d="M111.2,62.6c-1.2,0-2.2-0.2-3.1-0.5c-0.8-0.3-1.5-0.8-2-1.5c-0.5-0.6-0.9-1.4-1.1-2.3   c-0.2-0.9-0.3-1.9-0.3-3.1v-8.1c0-1.2,0.1-2.2,0.3-3.1c0.2-0.9,0.6-1.6,1.1-2.2c0.5-0.6,1.2-1.1,2-1.4c0.8-0.3,1.9-0.5,3.1-0.5   c2.3,0,4,0.6,5,1.8c1,1.2,1.5,3,1.5,5.4v8.1c0,2.4-0.5,4.2-1.5,5.4C115.2,62,113.5,62.6,111.2,62.6z M110.3,59.2   c0.2,0.1,0.5,0.2,0.9,0.2c0.3,0,0.6-0.1,0.9-0.2c0.2-0.1,0.4-0.2,0.6-0.4s0.2-0.4,0.3-0.7c0.1-0.3,0.1-0.5,0.2-0.8   c0-0.3,0-0.6,0-0.9V46.1c0-0.4,0-0.7,0-0.9c0-0.3-0.1-0.5-0.2-0.8c-0.1-0.3-0.2-0.5-0.3-0.6s-0.3-0.3-0.6-0.4   c-0.2-0.1-0.5-0.2-0.9-0.2c-0.3,0-0.6,0.1-0.9,0.2s-0.4,0.2-0.6,0.4s-0.2,0.4-0.3,0.7c-0.1,0.3-0.1,0.5-0.1,0.8c0,0.2,0,0.5,0,0.9   v10.3c0,0.4,0,0.7,0,0.9s0.1,0.5,0.1,0.8c0.1,0.3,0.2,0.5,0.3,0.7S110.1,59.1,110.3,59.2z"
   id="path1048" />
	<path
   class="st0"
   d="M122.4,62.3l-2.9-22.1h3.8l1.5,13.5l2-13.5h3l2.1,13.4l1.5-13.4h3.8l-2.9,22.1h-3.8l-2.2-14l-2.1,14H122.4z"
   id="path1050" />
	<path
   class="st0"
   d="M139.3,62.3V40.2h4.5v19h5.2v3.1H139.3z"
   id="path1052" />
	<path
   class="st0"
   d="M150.8,62.3V40.2h9.6v3.1h-5.1v5.8h4v3.1h-4v6.9h5.2v3.1H150.8z"
   id="path1054" />
	<path
   class="st0"
   d="M162.5,62.3V40.2h5.4c1.4,0,2.6,0.1,3.5,0.4s1.7,0.7,2.2,1.3s0.9,1.3,1.2,2.1c0.2,0.8,0.3,1.9,0.3,3.1v8   c0,1.3-0.1,2.4-0.3,3.2c-0.2,0.9-0.6,1.6-1.2,2.2c-0.6,0.6-1.3,1-2.2,1.3c-0.9,0.3-2.1,0.4-3.4,0.4H162.5z M166.9,59.2h0.9   c0.3,0,0.6,0,0.8-0.1c0.2,0,0.5-0.1,0.6-0.2c0.2-0.1,0.3-0.2,0.5-0.3c0.1-0.1,0.2-0.2,0.3-0.4c0.1-0.2,0.2-0.3,0.2-0.5   s0.1-0.4,0.1-0.6c0-0.3,0-0.5,0-0.7c0-0.2,0-0.5,0-0.9v-8.9c0-0.5,0-0.9,0-1.3c0-0.3-0.1-0.6-0.2-0.9s-0.2-0.5-0.4-0.6   c-0.2-0.1-0.4-0.3-0.8-0.3c-0.3-0.1-0.7-0.1-1.2-0.1h-0.9V59.2z"
   id="path1056" />
	<path
   class="st0"
   d="M183.4,62.6c-1.1,0-2-0.2-2.8-0.5c-0.8-0.4-1.4-0.9-1.9-1.6c-0.5-0.7-0.8-1.5-1-2.4c-0.2-0.9-0.3-2-0.3-3.2   v-7.3c0-1,0.1-1.9,0.2-2.7c0.1-0.8,0.3-1.5,0.7-2.1c0.3-0.7,0.7-1.2,1.2-1.6c0.5-0.4,1.1-0.7,1.8-1s1.6-0.4,2.6-0.4   c1.2,0,2.1,0.1,3,0.4c0.8,0.3,1.5,0.7,2,1.3c0.5,0.6,0.8,1.3,1.1,2s0.3,1.7,0.3,2.7v1.3h-4.4v-1.5c0-0.4,0-0.7,0-1   c0-0.3-0.1-0.5-0.1-0.8c-0.1-0.3-0.2-0.5-0.3-0.7c-0.1-0.2-0.3-0.3-0.6-0.4c-0.2-0.1-0.5-0.2-0.9-0.2c-0.4,0-0.7,0.1-0.9,0.2   c-0.2,0.1-0.4,0.3-0.6,0.5c-0.1,0.2-0.2,0.4-0.3,0.8c-0.1,0.3-0.1,0.6-0.1,0.9c0,0.3,0,0.6,0,1v9.6c0,1.1,0.1,1.9,0.4,2.4   c0.3,0.6,0.8,0.8,1.6,0.8c0.8,0,1.4-0.3,1.7-0.9c0.3-0.6,0.5-1.5,0.5-2.6v-2.2H184V51h6.2v11.4h-2.9l-0.3-2   C186.3,61.8,185.1,62.6,183.4,62.6z"
   id="path1058" />
	<path
   class="st0"
   d="M193,62.3V40.2h9.6v3.1h-5.1v5.8h4v3.1h-4v6.9h5.2v3.1H193z"
   id="path1060" />
	<path
   class="st0"
   d="M210.9,62.3v-3l5.3-8.3c0.1-0.1,0.3-0.4,0.6-1c0.4-0.5,0.6-0.9,0.7-1.1c0.1-0.2,0.3-0.5,0.5-1   c0.2-0.4,0.4-0.8,0.4-1.2c0.1-0.4,0.1-0.8,0.1-1.2c0-0.8-0.2-1.3-0.5-1.7c-0.3-0.3-0.6-0.5-1.1-0.5c-0.1,0-0.1,0-0.2,0   c-1.2,0.1-1.7,1.2-1.7,3.3v1h-4.1v-1.1c0-1,0.1-1.9,0.3-2.7s0.6-1.5,1-2.1c0.5-0.6,1.1-1.1,1.9-1.4s1.7-0.5,2.7-0.5   c1.9,0,3.4,0.5,4.4,1.5s1.5,2.5,1.5,4.3c0,0.6-0.1,1.2-0.2,1.8c-0.1,0.6-0.3,1.1-0.6,1.7c-0.3,0.6-0.5,1-0.8,1.4   c-0.2,0.4-0.6,0.9-1,1.5c-0.1,0.2-0.2,0.3-0.3,0.4l-4.3,6.4h6.5v3.3H210.9z"
   id="path1062" />
	<path
   class="st0"
   d="M230.4,62.7c-1.9,0-3.4-0.6-4.4-1.7s-1.5-2.7-1.5-4.6v-9.9c0-2,0.5-3.6,1.5-4.7c1-1.2,2.5-1.7,4.4-1.7   c2,0,3.4,0.6,4.4,1.7c1,1.2,1.5,2.7,1.5,4.7v9.9c0,1.9-0.5,3.5-1.5,4.6S232.3,62.7,230.4,62.7z M230.4,59c1.1,0,1.6-0.9,1.6-2.8   v-9.7c0-0.4,0-0.7,0-1c0-0.3-0.1-0.6-0.2-0.9s-0.3-0.6-0.5-0.8c-0.2-0.2-0.5-0.3-0.9-0.3c-0.2,0-0.5,0-0.7,0.1   c-0.2,0.1-0.3,0.2-0.4,0.4c-0.1,0.2-0.2,0.3-0.3,0.5c-0.1,0.2-0.1,0.4-0.2,0.6c0,0.2-0.1,0.5-0.1,0.6s0,0.4,0,0.6v9.7   C228.8,58.1,229.4,59,230.4,59z"
   id="path1064" />
	<path
   class="st0"
   d="M 256.0496,62.3 V 44.7 l -3.3,1.1 v -3.1 c 0.7,-0.3 1.5,-0.7 2.4,-1.1 0.9,-0.4 1.5,-0.9 1.8,-1.3 h 3.3 v 22.1 h -4.2 z"
   id="path1066"
   inkscape:connector-curvature="0"
   style="fill:#1c6274" />
	
<path
   inkscape:connector-curvature="0"
   class="st0"
   d="m 239.28692,62.597521 v -3 l 5.3,-8.3 c 0.1,-0.1 0.3,-0.4 0.6,-1 0.4,-0.5 0.6,-0.9 0.7,-1.1 0.1,-0.2 0.3,-0.5 0.5,-1 0.2,-0.4 0.4,-0.8 0.4,-1.2 0.1,-0.4 0.1,-0.8 0.1,-1.2 0,-0.8 -0.2,-1.3 -0.5,-1.7 -0.3,-0.3 -0.6,-0.5 -1.1,-0.5 -0.1,0 -0.1,0 -0.2,0 -1.2,0.1 -1.7,1.2 -1.7,3.3 v 1 h -4.1 v -1.1 c 0,-1 0.1,-1.9 0.3,-2.7 0.2,-0.8 0.6,-1.5 1,-2.1 0.5,-0.6 1.1,-1.1 1.9,-1.4 0.8,-0.3 1.7,-0.5 2.7,-0.5 1.9,0 3.4,0.5 4.4,1.5 1,1 1.5,2.5 1.5,4.3 0,0.6 -0.1,1.2 -0.2,1.8 -0.1,0.6 -0.3,1.1 -0.6,1.7 -0.3,0.6 -0.5,1 -0.8,1.4 -0.2,0.4 -0.6,0.9 -1,1.5 -0.1,0.2 -0.2,0.3 -0.3,0.4 l -4.3,6.4 h 6.5 v 3.3 h -11.1 z"
   id="path1062-4"
   style="fill:#1c6274" /></g>
</svg>