<?xml version="1.0" encoding="UTF-8"?>
<svg width="1029px" height="380px" viewBox="0 0 1029 380" version="1.1" xmlns="http://www.w3.org/2000/svg" xmlns:xlink="http://www.w3.org/1999/xlink">
    <!-- Generator: Sketch 64 (93537) - https://sketch.com -->
    <title>Artboard Copy</title>
    <desc>Created with Sketch.</desc>
    <g id="Artboard-Copy" stroke="none" stroke-width="1" fill="none" fill-rule="evenodd">
        <g id="TheWebConference2018-logo" transform="translate(32.000000, 18.000000)" fill-rule="nonzero">
            <polygon id="Shape" fill="#B99B4A" points="446 152 388 171.532164 446 192 504 171.532164"></polygon>
            <g id="Group">
                <g id="TheWebConference" transform="translate(388.209773, 85.632107)" fill="#2E3133">
                    <g id="Typographie_1_">
                        <polygon id="Shape" points="12.7471866 51.6107023 12.7471866 11.1090301 0.115883514 11.1090301 0.115883514 1.04147157 35.5762389 1.04147157 35.5762389 11.1090301 23.0608194 11.1090301 23.0608194 51.6107023"></polygon>
                        <polygon id="Shape" points="68.6030405 51.6107023 68.6030405 31.3598662 53.4223001 31.3598662 53.4223001 51.6107023 43.2245509 51.6107023 43.2245509 0.810033445 53.4223001 0.810033445 53.4223001 21.0608696 68.6030405 21.0608696 68.6030405 0.810033445 78.8007898 0.810033445 78.8007898 51.4949833 68.6030405 51.4949833"></polygon>
                        <polygon id="Shape" points="90.0414907 51.6107023 90.0414907 0.810033445 116.694699 0.810033445 116.694699 10.993311 100.23924 10.993311 100.23924 21.1765886 113.565844 21.1765886 113.565844 31.3598662 100.23924 31.3598662 100.23924 41.5431438 116.694699 41.5431438 116.694699 51.7264214"></polygon>
                        <polygon id="Shape" points="178.228845 104.841472 136.279013 0.810033445 159.339832 0.810033445 179.967098 53.1150502 200.014946 1.85150502 200.942014 1.85150502 220.989862 53.1150502 241.617128 0.810033445 264.677947 0.810033445 222.843998 104.841472 219.135726 104.841472 200.47848 59.7110368 181.937118 104.957191"></polygon>
                        <polygon id="Shape" points="281.133406 104.841472 281.133406 0.925752508 333.165104 0.925752508 333.165104 21.6394649 301.876555 21.6394649 301.876555 42.3531773 329.225064 42.3531773 329.225064 63.0668896 301.876555 63.0668896 301.876555 83.780602 334.903357 83.780602 334.903357 104.494314"></polygon>
                        <path d="M356.11004,0.810033445 L397.364571,0.810033445 C415.905933,0.810033445 427.378401,14.0020067 426.914867,32.4013378 C426.567217,40.2702341 423.901896,48.3705686 417.296535,52.9993311 C424.133663,57.6280936 428.073702,65.612709 428.073702,73.7130435 C428.073702,91.070903 414.16768,104.957191 397.364571,104.957191 L356.11004,104.957191 L356.11004,0.810033445 L356.11004,0.810033445 Z M376.969072,42.5846154 L389.484492,42.5846154 L395.394551,42.5846154 C401.30461,42.5846154 405.012883,37.8401338 405.012883,32.0541806 C405.012883,26.2682274 401.30461,21.5237458 395.394551,21.5237458 L376.853189,21.5237458 L376.853189,42.5846154 L376.969072,42.5846154 L376.969072,42.5846154 Z M376.969072,84.2434783 L389.484492,84.2434783 L395.394551,84.2434783 C401.30461,84.2434783 405.939951,79.6147157 405.939951,73.7130435 C405.939951,67.8113712 401.420494,63.4140468 395.394551,63.4140468 L376.853189,63.4140468 L376.853189,84.2434783 L376.969072,84.2434783 Z" id="Shape"></path>
                        <path d="M26.1896743,133.076923 C5.79417572,133.076923 5.79417572,164.32107 26.1896743,164.32107 C30.5932478,164.32107 34.1856367,163.048161 36.1556565,162.006689 L37.5462587,172.652843 C34.4174038,173.925753 29.8979467,174.851505 26.3055578,174.851505 C-8.57538007,174.851505 -8.45949655,122.777926 26.3055578,122.777926 C29.8979467,122.777926 33.3744521,123.472241 36.503307,124.86087 L35.3444719,135.507023 C33.2585686,134.349833 30.7091313,133.076923 26.1896743,133.076923 Z" id="Shape"></path>
                        <path d="M70.3412932,122.546488 C105.801649,122.546488 105.801649,175.4301 70.3412932,175.4301 C35.1127049,175.4301 35.1127049,122.546488 70.3412932,122.546488 Z M70.3412932,133.076923 C49.7140277,133.076923 49.7140277,164.784261 70.3412932,164.784261 C90.9685588,164.899666 90.9685588,133.076923 70.3412932,133.076923 Z" id="Shape"></path>
                        <polygon id="Shape" points="116.810583 174.735786 106.49695 174.735786 106.49695 122.430769 109.162271 122.430769 135.120178 152.633445 135.120178 123.703679 145.549694 123.703679 145.549694 175.892977 142.884373 175.892977 116.926466 146.963211 116.810583 174.735786"></polygon>
                        <polygon id="Shape" points="167.451678 133.771237 167.451678 144.070234 180.546515 144.070234 180.546515 154.369231 167.451678 154.369231 167.451678 174.967224 157.253929 174.967224 157.253929 123.58796 182.864186 123.58796 182.864186 133.886957"></polygon>
                        <polygon id="Shape" points="191.323682 174.735786 191.323682 123.356522 217.049822 123.356522 217.049822 133.655518 201.637315 133.655518 201.637315 143.954515 215.195686 143.954515 215.195686 154.253512 201.637315 154.253512 201.637315 164.552508 217.861007 164.552508 217.861007 174.851505"></polygon>
                        <path d="M253.089595,174.735786 L242.660079,155.179264 L237.677088,155.179264 L237.677088,174.735786 L227.363455,174.735786 L227.363455,123.356522 L247.64307,123.356522 C265.952666,123.356522 267.806802,149.046154 252.626061,153.559197 L264.562063,174.735786 L253.089595,174.735786 L253.089595,174.735786 Z M237.792972,145.227425 L246.831886,145.227425 C253.784897,145.227425 253.784897,133.771237 246.831886,133.771237 L237.792972,133.771237 L237.792972,145.227425 Z" id="Shape"></path>
                        <polygon id="Shape" points="271.515074 174.735786 271.515074 123.356522 297.241214 123.356522 297.241214 133.655518 281.712824 133.655518 281.712824 143.954515 295.271195 143.954515 295.271195 154.253512 281.712824 154.253512 281.712824 164.552508 298.052399 164.552508 298.052399 174.851505"></polygon>
                        <polygon id="Shape" points="318.100247 174.735786 307.786614 174.735786 307.786614 122.430769 310.451935 122.430769 336.409842 152.633445 336.409842 123.703679 346.839359 123.703679 346.839359 175.892977 344.174038 175.892977 318.216131 146.963211"></polygon>
                        <path d="M382.18383,133.076923 C361.788332,133.076923 361.788332,164.32107 382.18383,164.32107 C386.587404,164.32107 390.179793,163.048161 392.149813,162.006689 L393.540415,172.652843 C390.41156,173.925753 385.892103,174.851505 382.299714,174.851505 C347.418776,174.851505 347.53466,122.777926 382.299714,122.777926 C385.892103,122.777926 389.368608,123.472241 392.497463,124.86087 L391.338628,135.507023 C389.136841,134.349833 386.587404,133.076923 382.18383,133.076923 Z" id="Shape"></path>
                        <polygon id="Shape" points="401.536377 174.735786 401.536377 123.356522 428.189586 123.356522 428.189586 133.655518 411.85001 133.655518 411.85001 143.954515 425.408381 143.954515 425.408381 154.253512 411.85001 154.253512 411.85001 164.552508 428.189586 164.552508 428.189586 174.851505"></polygon>
                    </g>
                </g>
                <g id="Pictogramme">
                    <g id="Couronne">
                        <polygon id="Shape" fill="#B99B4A" points="86.6808688 322.393311 132.918391 322.393311 63.3882824 282.238796"></polygon>
                        <polygon id="Shape" fill="#B99B4A" points="259.231422 23.0280936 212.993899 23.1438127 282.524008 63.2983278"></polygon>
                        <polygon id="Shape" fill="#B99B4A" points="86.3332182 23.2595318 63.1565153 63.2983278 132.802508 23.2595318"></polygon>
                        <polygon id="Shape" fill="#B99B4A" points="259.579072 322.277592 282.755775 282.123077 213.109783 322.277592"></polygon>
                        <polygon id="Shape" fill="#B99B4A" points="0 172.884281 23.1767029 212.923077 23.1767029 132.729766"></polygon>
                        <polygon id="Shape" fill="#B99B4A" points="346.028174 172.537124 322.851471 132.498328 322.851471 212.807358"></polygon>
                        <polygon id="Shape" fill="#B99B4A" points="23.1767029 259.094983 63.3882824 282.238796 23.1767029 212.923077"></polygon>
                        <polygon id="Shape" fill="#B99B4A" points="173.014087 345.421405 213.109783 322.277592 132.918391 322.393311"></polygon>
                        <polygon id="Shape" fill="#B99B4A" points="173.014087 0 132.802508 23.2595318 212.993899 23.1438127"></polygon>
                        <polygon id="Shape" fill="#B99B4A" points="322.851471 212.807358 282.755775 282.123077 322.851471 259.094983"></polygon>
                        <polygon id="Shape" fill="#B99B4A" points="322.851471 86.3264214 282.524008 63.2983278 322.851471 132.498328"></polygon>
                        <polygon id="Shape" fill="#B99B4A" points="23.1767029 86.3264214 23.1767029 132.729766 63.1565153 63.2983278"></polygon>
                        <polygon id="Shape" fill="#AB8211" points="322.851471 132.498328 282.524008 63.2983278 212.993899 23.1438127 132.802508 23.2595318 63.1565153 63.2983278 23.1767029 132.729766 23.1767029 212.923077 63.3882824 282.238796 132.918391 322.393311 213.109783 322.277592 282.755775 282.123077 322.851471 212.807358"></polygon>
                    </g>
                    <polygon id="France" fill="#FFFFFF" points="272.673909 230.280936 272.673909 115.256187 173.014087 57.7438127 73.2383811 115.256187 73.2383811 230.280936 173.014087 287.793311"></polygon>
                    <g id="Visage" transform="translate(98.500987, 146.963211)" fill="#2E3133">
                        <polygon id="Shape" points="73.5860316 75.1016722 47.1645904 44.4361204 102.788677 44.4361204 76.4831195 75.1016722"></polygon>
                        <polygon id="Shape" points="41.4862982 27.0782609 29.0867621 0.578595318 0.811184601 2.43010033 7.99596249 24.1852843"></polygon>
                        <polygon id="Shape" points="108.003435 27.0782609 119.36002 0.578595318 149.0262 2.43010033 141.725538 24.1852843"></polygon>
                    </g>
                </g>
            </g>
        </g>
        <path d="M838.482221,225 L840.98532,218.1417 L862.172273,218.1417 L864.764769,225 L879.157593,225 L852.24927,159 L850.908323,159 L824,225 L838.482221,225 Z M857.094556,206 L845.060172,206 L851.168533,189 L857.094556,206 Z M916.886941,224.5 C921.319494,224.5 926.904511,223.442149 930.805158,221.855372 L929.120787,208.80854 C926.727209,210.0427 922.383307,211.629477 916.886941,211.629477 C891.79869,211.629477 891.79869,173.194215 916.886941,173.194215 C922.383307,173.194215 925.486094,174.692837 927.879673,175.926997 L929.386741,162.96832 C925.574745,161.293388 921.319494,160.5 916.886941,160.5 C873.979827,160.5 873.891176,224.5 916.886941,224.5 Z M953.710296,224.5 L953.710296,189.326446 L969.961307,206.252066 L986.212319,189.326446 L986.123515,224.5 L999,224.5 L999,160.5 L995.00385,160.5 L969.961307,188.180441 L944.918765,160.5 L940.833811,160.5 L940.833811,224.5 L953.710296,224.5 Z" id="ACM" fill="#B99B4A" fill-rule="nonzero" transform="translate(911.500000, 192.000000) rotate(90.000000) translate(-911.500000, -192.000000) "></path>
    </g>
</svg>